<svg class="rich-terminal" viewBox="0 0 1458 782.0" xmlns="http://www.w3.org/2000/svg">
    <!-- Generated with Rich https://www.textualize.io -->
    <style>

    @font-face {
        font-family: "Fira Code";
        src: local("FiraCode-Regular"),
                url("https://cdnjs.cloudflare.com/ajax/libs/firacode/6.2.0/woff2/FiraCode-Regular.woff2") format("woff2"),
                url("https://cdnjs.cloudflare.com/ajax/libs/firacode/6.2.0/woff/FiraCode-Regular.woff") format("woff");
        font-style: normal;
        font-weight: 400;
    }
    @font-face {
        font-family: "Fira Code";
        src: local("FiraCode-Bold"),
                url("https://cdnjs.cloudflare.com/ajax/libs/firacode/6.2.0/woff2/FiraCode-Bold.woff2") format("woff2"),
                url("https://cdnjs.cloudflare.com/ajax/libs/firacode/6.2.0/woff/FiraCode-Bold.woff") format("woff");
        font-style: bold;
        font-weight: 700;
    }

    .terminal-3405405702-matrix {
        font-family: Fira Code, monospace;
        font-size: 20px;
        line-height: 24.4px;
        font-variant-east-asian: full-width;
    }

    .terminal-3405405702-title {
        font-size: 18px;
        font-weight: bold;
        font-family: arial;
    }

    .terminal-3405405702-r1 { fill: #c5c8c6 }
.terminal-3405405702-r2 { fill: #2a251c }
.terminal-3405405702-r3 { fill: #7c7261;font-weight: bold }
.terminal-3405405702-r4 { fill: #0c0a08 }
.terminal-3405405702-r5 { fill: #e2503a }
.terminal-3405405702-r6 { fill: #cdbfa6 }
.terminal-3405405702-r7 { fill: #7c7261 }
.terminal-3405405702-r8 { fill: #f7b23b }
.terminal-3405405702-r9 { fill: #e7dcc4;font-weight: bold }
.terminal-3405405702-r10 { fill: #a9711f }
.terminal-3405405702-r11 { fill: #544c3f }
.terminal-3405405702-r12 { fill: #ffa62b;font-weight: bold }
.terminal-3405405702-r13 { fill: #e0e0e0 }
.terminal-3405405702-r14 { fill: #3b3937 }
    </style>

    <defs>
    <clipPath id="terminal-3405405702-clip-terminal">
      <rect x="0" y="0" width="1438.6" height="731.0" />
    </clipPath>
    <clipPath id="terminal-3405405702-line-0">
    <rect x="0" y="1.5" width="1439.6" height="24.65"/>
            </clipPath>
<clipPath id="terminal-3405405702-line-1">
    <rect x="0" y="25.9" width="1439.6" height="24.65"/>
            </clipPath>
<clipPath id="terminal-3405405702-line-2">
    <rect x="0" y="50.3" width="1439.6" height="24.65"/>
            </clipPath>
<clipPath id="terminal-3405405702-line-3">
    <rect x="0" y="74.7" width="1439.6" height="24.65"/>
            </clipPath>
<clipPath id="terminal-3405405702-line-4">
    <rect x="0" y="99.1" width="1439.6" height="24.65"/>
            </clipPath>
<clipPath id="terminal-3405405702-line-5">
    <rect x="0" y="123.5" width="1439.6" height="24.65"/>
            </clipPath>
<clipPath id="terminal-3405405702-line-6">
    <rect x="0" y="147.9" width="1439.6" height="24.65"/>
            </clipPath>
<clipPath id="terminal-3405405702-line-7">
    <rect x="0" y="172.3" width="1439.6" height="24.65"/>
            </clipPath>
<clipPath id="terminal-3405405702-line-8">
    <rect x="0" y="196.7" width="1439.6" height="24.65"/>
            </clipPath>
<clipPath id="terminal-3405405702-line-9">
    <rect x="0" y="221.1" width="1439.6" height="24.65"/>
            </clipPath>
<clipPath id="terminal-3405405702-line-10">
    <rect x="0" y="245.5" width="1439.6" height="24.65"/>
            </clipPath>
<clipPath id="terminal-3405405702-line-11">
    <rect x="0" y="269.9" width="1439.6" height="24.65"/>
            </clipPath>
<clipPath id="terminal-3405405702-line-12">
    <rect x="0" y="294.3" width="1439.6" height="24.65"/>
            </clipPath>
<clipPath id="terminal-3405405702-line-13">
    <rect x="0" y="318.7" width="1439.6" height="24.65"/>
            </clipPath>
<clipPath id="terminal-3405405702-line-14">
    <rect x="0" y="343.1" width="1439.6" height="24.65"/>
            </clipPath>
<clipPath id="terminal-3405405702-line-15">
    <rect x="0" y="367.5" width="1439.6" height="24.65"/>
            </clipPath>
<clipPath id="terminal-3405405702-line-16">
    <rect x="0" y="391.9" width="1439.6" height="24.65"/>
            </clipPath>
<clipPath id="terminal-3405405702-line-17">
    <rect x="0" y="416.3" width="1439.6" height="24.65"/>
            </clipPath>
<clipPath id="terminal-3405405702-line-18">
    <rect x="0" y="440.7" width="1439.6" height="24.65"/>
            </clipPath>
<clipPath id="terminal-3405405702-line-19">
    <rect x="0" y="465.1" width="1439.6" height="24.65"/>
            </clipPath>
<clipPath id="terminal-3405405702-line-20">
    <rect x="0" y="489.5" width="1439.6" height="24.65"/>
            </clipPath>
<clipPath id="terminal-3405405702-line-21">
    <rect x="0" y="513.9" width="1439.6" height="24.65"/>
            </clipPath>
<clipPath id="terminal-3405405702-line-22">
    <rect x="0" y="538.3" width="1439.6" height="24.65"/>
            </clipPath>
<clipPath id="terminal-3405405702-line-23">
    <rect x="0" y="562.7" width="1439.6" height="24.65"/>
            </clipPath>
<clipPath id="terminal-3405405702-line-24">
    <rect x="0" y="587.1" width="1439.6" height="24.65"/>
            </clipPath>
<clipPath id="terminal-3405405702-line-25">
    <rect x="0" y="611.5" width="1439.6" height="24.65"/>
            </clipPath>
<clipPath id="terminal-3405405702-line-26">
    <rect x="0" y="635.9" width="1439.6" height="24.65"/>
            </clipPath>
<clipPath id="terminal-3405405702-line-27">
    <rect x="0" y="660.3" width="1439.6" height="24.65"/>
            </clipPath>
<clipPath id="terminal-3405405702-line-28">
    <rect x="0" y="684.7" width="1439.6" height="24.65"/>
            </clipPath>
    </defs>

    <rect fill="#292929" stroke="rgba(255,255,255,0.35)" stroke-width="1" x="1" y="1" width="1456" height="780" rx="8"/><text class="terminal-3405405702-title" fill="#c5c8c6" text-anchor="middle" x="728" y="27">MISSION&#160;CONTROL</text>
            <g transform="translate(26,22)">
            <circle cx="0" cy="0" r="7" fill="#ff5f57"/>
            <circle cx="22" cy="0" r="7" fill="#febc2e"/>
            <circle cx="44" cy="0" r="7" fill="#28c840"/>
            </g>

    <g transform="translate(9, 41)" clip-path="url(#terminal-3405405702-clip-terminal)">
    <rect fill="#12100d" x="0" y="1.5" width="1439.6" height="24.65" shape-rendering="crispEdges"/><rect fill="#12100d" x="0" y="25.9" width="1439.6" height="24.65" shape-rendering="crispEdges"/><rect fill="#12100d" x="0" y="50.3" width="1439.6" height="24.65" shape-rendering="crispEdges"/><rect fill="#17140f" x="0" y="74.7" width="12.2" height="24.65" shape-rendering="crispEdges"/><rect fill="#17140f" x="12.2" y="74.7" width="256.2" height="24.65" shape-rendering="crispEdges"/><rect fill="#17140f" x="268.4" y="74.7" width="292.8" height="24.65" shape-rendering="crispEdges"/><rect fill="#17140f" x="561.2" y="74.7" width="12.2" height="24.65" shape-rendering="crispEdges"/><rect fill="#17140f" x="573.4" y="74.7" width="12.2" height="24.65" shape-rendering="crispEdges"/><rect fill="#17140f" x="585.6" y="74.7" width="183" height="24.65" shape-rendering="crispEdges"/><rect fill="#17140f" x="768.6" y="74.7" width="658.8" height="24.65" shape-rendering="crispEdges"/><rect fill="#17140f" x="1427.4" y="74.7" width="12.2" height="24.65" shape-rendering="crispEdges"/><rect fill="#0c0a08" x="0" y="99.1" width="12.2" height="24.65" shape-rendering="crispEdges"/><rect fill="#0c0a08" x="12.2" y="99.1" width="12.2" height="24.65" shape-rendering="crispEdges"/><rect fill="#0c0a08" x="24.4" y="99.1" width="12.2" height="24.65" shape-rendering="crispEdges"/><rect fill="#0c0a08" x="36.6" y="99.1" width="24.4" height="24.65" shape-rendering="crispEdges"/><rect fill="#0c0a08" x="61" y="99.1" width="109.8" height="24.65" shape-rendering="crispEdges"/><rect fill="#0c0a08" x="170.8" y="99.1" width="12.2" height="24.65" shape-rendering="crispEdges"/><rect fill="#0c0a08" x="183" y="99.1" width="317.2" height="24.65" shape-rendering="crispEdges"/><rect fill="#0c0a08" x="500.2" y="99.1" width="12.2" height="24.65" shape-rendering="crispEdges"/><rect fill="#0c0a08" x="512.4" y="99.1" width="24.4" height="24.65" shape-rendering="crispEdges"/><rect fill="#0c0a08" x="536.8" y="99.1" width="12.2" height="24.65" shape-rendering="crispEdges"/><rect fill="#0c0a08" x="549" y="99.1" width="12.2" height="24.65" shape-rendering="crispEdges"/><rect fill="#0c0a08" x="561.2" y="99.1" width="12.2" height="24.65" shape-rendering="crispEdges"/><rect fill="#12100d" x="573.4" y="99.1" width="866.2" height="24.65" shape-rendering="crispEdges"/><rect fill="#0c0a08" x="0" y="123.5" width="12.2" height="24.65" shape-rendering="crispEdges"/><rect fill="#0c0a08" x="12.2" y="123.5" width="12.2" height="24.65" shape-rendering="crispEdges"/><rect fill="#0c0a08" x="24.4" y="123.5" width="12.2" height="24.65" shape-rendering="crispEdges"/><rect fill="#0c0a08" x="36.6" y="123.5" width="24.4" height="24.65" shape-rendering="crispEdges"/><rect fill="#0c0a08" x="61" y="123.5" width="109.8" height="24.65" shape-rendering="crispEdges"/><rect fill="#0c0a08" x="170.8" y="123.5" width="12.2" height="24.65" shape-rendering="crispEdges"/><rect fill="#0c0a08" x="183" y="123.5" width="317.2" height="24.65" shape-rendering="crispEdges"/><rect fill="#0c0a08" x="500.2" y="123.5" width="12.2" height="24.65" shape-rendering="crispEdges"/><rect fill="#0c0a08" x="512.4" y="123.5" width="24.4" height="24.65" shape-rendering="crispEdges"/><rect fill="#0c0a08" x="536.8" y="123.5" width="12.2" height="24.65" shape-rendering="crispEdges"/><rect fill="#0c0a08" x="549" y="123.5" width="12.2" height="24.65" shape-rendering="crispEdges"/><rect fill="#0c0a08" x="561.2" y="123.5" width="12.2" height="24.65" shape-rendering="crispEdges"/><rect fill="#12100d" x="573.4" y="123.5" width="24.4" height="24.65" shape-rendering="crispEdges"/><rect fill="#12100d" x="597.8" y="123.5" width="244" height="24.65" shape-rendering="crispEdges"/><rect fill="#12100d" x="841.8" y="123.5" width="24.4" height="24.65" shape-rendering="crispEdges"/><rect fill="#12100d" x="866.2" y="123.5" width="73.2" height="24.65" shape-rendering="crispEdges"/><rect fill="#12100d" x="939.4" y="123.5" width="475.8" height="24.65" shape-rendering="crispEdges"/><rect fill="#12100d" x="1415.2" y="123.5" width="24.4" height="24.65" shape-rendering="crispEdges"/><rect fill="#17140f" x="0" y="147.9" width="12.2" height="24.65" shape-rendering="crispEdges"/><rect fill="#17140f" x="12.2" y="147.9" width="12.2" height="24.65" shape-rendering="crispEdges"/><rect fill="#17140f" x="24.4" y="147.9" width="12.2" height="24.65" shape-rendering="crispEdges"/><rect fill="#17140f" x="36.6" y="147.9" width="24.4" height="24.65" shape-rendering="crispEdges"/><rect fill="#17140f" x="61" y="147.9" width="109.8" height="24.65" shape-rendering="crispEdges"/><rect fill="#17140f" x="170.8" y="147.9" width="12.2" height="24.65" shape-rendering="crispEdges"/><rect fill="#17140f" x="183" y="147.9" width="317.2" height="24.65" shape-rendering="crispEdges"/><rect fill="#17140f" x="500.2" y="147.9" width="12.2" height="24.65" shape-rendering="crispEdges"/><rect fill="#17140f" x="512.4" y="147.9" width="24.4" height="24.65" shape-rendering="crispEdges"/><rect fill="#17140f" x="536.8" y="147.9" width="12.2" height="24.65" shape-rendering="crispEdges"/><rect fill="#17140f" x="549" y="147.9" width="12.2" height="24.65" shape-rendering="crispEdges"/><rect fill="#0c0a08" x="561.2" y="147.9" width="12.2" height="24.65" shape-rendering="crispEdges"/><rect fill="#12100d" x="573.4" y="147.9" width="24.4" height="24.65" shape-rendering="crispEdges"/><rect fill="#12100d" x="597.8" y="147.9" width="317.2" height="24.65" shape-rendering="crispEdges"/><rect fill="#12100d" x="915" y="147.9" width="500.2" height="24.65" shape-rendering="crispEdges"/><rect fill="#12100d" x="1415.2" y="147.9" width="24.4" height="24.65" shape-rendering="crispEdges"/><rect fill="#0c0a08" x="0" y="172.3" width="12.2" height="24.65" shape-rendering="crispEdges"/><rect fill="#0c0a08" x="12.2" y="172.3" width="12.2" height="24.65" shape-rendering="crispEdges"/><rect fill="#0c0a08" x="24.4" y="172.3" width="12.2" height="24.65" shape-rendering="crispEdges"/><rect fill="#0c0a08" x="36.6" y="172.3" width="24.4" height="24.65" shape-rendering="crispEdges"/><rect fill="#0c0a08" x="61" y="172.3" width="109.8" height="24.65" shape-rendering="crispEdges"/><rect fill="#0c0a08" x="170.8" y="172.3" width="12.2" height="24.65" shape-rendering="crispEdges"/><rect fill="#0c0a08" x="183" y="172.3" width="317.2" height="24.65" shape-rendering="crispEdges"/><rect fill="#0c0a08" x="500.2" y="172.3" width="12.2" height="24.65" shape-rendering="crispEdges"/><rect fill="#0c0a08" x="512.4" y="172.3" width="24.4" height="24.65" shape-rendering="crispEdges"/><rect fill="#0c0a08" x="536.8" y="172.3" width="12.2" height="24.65" shape-rendering="crispEdges"/><rect fill="#0c0a08" x="549" y="172.3" width="12.2" height="24.65" shape-rendering="crispEdges"/><rect fill="#0c0a08" x="561.2" y="172.3" width="12.2" height="24.65" shape-rendering="crispEdges"/><rect fill="#12100d" x="573.4" y="172.3" width="24.4" height="24.65" shape-rendering="crispEdges"/><rect fill="#12100d" x="597.8" y="172.3" width="0" height="24.65" shape-rendering="crispEdges"/><rect fill="#12100d" x="597.8" y="172.3" width="817.4" height="24.65" shape-rendering="crispEdges"/><rect fill="#12100d" x="1415.2" y="172.3" width="24.4" height="24.65" shape-rendering="crispEdges"/><rect fill="#0c0a08" x="0" y="196.7" width="12.2" height="24.65" shape-rendering="crispEdges"/><rect fill="#0c0a08" x="12.2" y="196.7" width="12.2" height="24.65" shape-rendering="crispEdges"/><rect fill="#0c0a08" x="24.4" y="196.7" width="12.2" height="24.65" shape-rendering="crispEdges"/><rect fill="#0c0a08" x="36.6" y="196.7" width="24.4" height="24.65" shape-rendering="crispEdges"/><rect fill="#0c0a08" x="61" y="196.7" width="109.8" height="24.65" shape-rendering="crispEdges"/><rect fill="#0c0a08" x="170.8" y="196.7" width="12.2" height="24.65" shape-rendering="crispEdges"/><rect fill="#0c0a08" x="183" y="196.7" width="317.2" height="24.65" shape-rendering="crispEdges"/><rect fill="#0c0a08" x="500.2" y="196.7" width="12.2" height="24.65" shape-rendering="crispEdges"/><rect fill="#0c0a08" x="512.4" y="196.7" width="24.4" height="24.65" shape-rendering="crispEdges"/><rect fill="#0c0a08" x="536.8" y="196.7" width="12.2" height="24.65" shape-rendering="crispEdges"/><rect fill="#0c0a08" x="549" y="196.7" width="12.2" height="24.65" shape-rendering="crispEdges"/><rect fill="#0c0a08" x="561.2" y="196.7" width="12.2" height="24.65" shape-rendering="crispEdges"/><rect fill="#12100d" x="573.4" y="196.7" width="24.4" height="24.65" shape-rendering="crispEdges"/><rect fill="#12100d" x="597.8" y="196.7" width="170.8" height="24.65" shape-rendering="crispEdges"/><rect fill="#12100d" x="768.6" y="196.7" width="646.6" height="24.65" shape-rendering="crispEdges"/><rect fill="#12100d" x="1415.2" y="196.7" width="24.4" height="24.65" shape-rendering="crispEdges"/><rect fill="#0c0a08" x="0" y="221.1" width="561.2" height="24.65" shape-rendering="crispEdges"/><rect fill="#0c0a08" x="561.2" y="221.1" width="12.2" height="24.65" shape-rendering="crispEdges"/><rect fill="#12100d" x="573.4" y="221.1" width="24.4" height="24.65" shape-rendering="crispEdges"/><rect fill="#12100d" x="597.8" y="221.1" width="24.4" height="24.65" shape-rendering="crispEdges"/><rect fill="#12100d" x="622.2" y="221.1" width="73.2" height="24.65" shape-rendering="crispEdges"/><rect fill="#12100d" x="695.4" y="221.1" width="12.2" height="24.65" shape-rendering="crispEdges"/><rect fill="#12100d" x="707.6" y="221.1" width="646.6" height="24.65" shape-rendering="crispEdges"/><rect fill="#12100d" x="1354.2" y="221.1" width="61" height="24.65" shape-rendering="crispEdges"/><rect fill="#12100d" x="1415.2" y="221.1" width="24.4" height="24.65" shape-rendering="crispEdges"/><rect fill="#0c0a08" x="0" y="245.5" width="561.2" height="24.65" shape-rendering="crispEdges"/><rect fill="#0c0a08" x="561.2" y="245.5" width="12.2" height="24.65" shape-rendering="crispEdges"/><rect fill="#12100d" x="573.4" y="245.5" width="24.4" height="24.65" shape-rendering="crispEdges"/><rect fill="#12100d" x="597.8" y="245.5" width="170.8" height="24.65" shape-rendering="crispEdges"/><rect fill="#12100d" x="768.6" y="245.5" width="646.6" height="24.65" shape-rendering="crispEdges"/><rect fill="#12100d" x="1415.2" y="245.5" width="24.4" height="24.65" shape-rendering="crispEdges"/><rect fill="#0c0a08" x="0" y="269.9" width="561.2" height="24.65" shape-rendering="crispEdges"/><rect fill="#0c0a08" x="561.2" y="269.9" width="12.2" height="24.65" shape-rendering="crispEdges"/><rect fill="#12100d" x="573.4" y="269.9" width="24.4" height="24.65" shape-rendering="crispEdges"/><rect fill="#12100d" x="597.8" y="269.9" width="24.4" height="24.65" shape-rendering="crispEdges"/><rect fill="#12100d" x="622.2" y="269.9" width="73.2" height="24.65" shape-rendering="crispEdges"/><rect fill="#12100d" x="695.4" y="269.9" width="12.2" height="24.65" shape-rendering="crispEdges"/><rect fill="#12100d" x="707.6" y="269.9" width="585.6" height="24.65" shape-rendering="crispEdges"/><rect fill="#12100d" x="1293.2" y="269.9" width="122" height="24.65" shape-rendering="crispEdges"/><rect fill="#12100d" x="1415.2" y="269.9" width="24.4" height="24.65" shape-rendering="crispEdges"/><rect fill="#0c0a08" x="0" y="294.3" width="561.2" height="24.65" shape-rendering="crispEdges"/><rect fill="#0c0a08" x="561.2" y="294.3" width="12.2" height="24.65" shape-rendering="crispEdges"/><rect fill="#12100d" x="573.4" y="294.3" width="24.4" height="24.65" shape-rendering="crispEdges"/><rect fill="#12100d" x="597.8" y="294.3" width="317.2" height="24.65" shape-rendering="crispEdges"/><rect fill="#12100d" x="915" y="294.3" width="500.2" height="24.65" shape-rendering="crispEdges"/><rect fill="#12100d" x="1415.2" y="294.3" width="24.4" height="24.65" shape-rendering="crispEdges"/><rect fill="#0c0a08" x="0" y="318.7" width="561.2" height="24.65" shape-rendering="crispEdges"/><rect fill="#0c0a08" x="561.2" y="318.7" width="12.2" height="24.65" shape-rendering="crispEdges"/><rect fill="#12100d" x="573.4" y="318.7" width="24.4" height="24.65" shape-rendering="crispEdges"/><rect fill="#12100d" x="597.8" y="318.7" width="0" height="24.65" shape-rendering="crispEdges"/><rect fill="#12100d" x="597.8" y="318.7" width="817.4" height="24.65" shape-rendering="crispEdges"/><rect fill="#12100d" x="1415.2" y="318.7" width="24.4" height="24.65" shape-rendering="crispEdges"/><rect fill="#0c0a08" x="0" y="343.1" width="561.2" height="24.65" shape-rendering="crispEdges"/><rect fill="#0c0a08" x="561.2" y="343.1" width="12.2" height="24.65" shape-rendering="crispEdges"/><rect fill="#12100d" x="573.4" y="343.1" width="24.4" height="24.65" shape-rendering="crispEdges"/><rect fill="#12100d" x="597.8" y="343.1" width="170.8" height="24.65" shape-rendering="crispEdges"/><rect fill="#12100d" x="768.6" y="343.1" width="646.6" height="24.65" shape-rendering="crispEdges"/><rect fill="#12100d" x="1415.2" y="343.1" width="24.4" height="24.65" shape-rendering="crispEdges"/><rect fill="#0c0a08" x="0" y="367.5" width="561.2" height="24.65" shape-rendering="crispEdges"/><rect fill="#0c0a08" x="561.2" y="367.5" width="12.2" height="24.65" shape-rendering="crispEdges"/><rect fill="#12100d" x="573.4" y="367.5" width="24.4" height="24.65" shape-rendering="crispEdges"/><rect fill="#12100d" x="597.8" y="367.5" width="24.4" height="24.65" shape-rendering="crispEdges"/><rect fill="#12100d" x="622.2" y="367.5" width="97.6" height="24.65" shape-rendering="crispEdges"/><rect fill="#12100d" x="719.8" y="367.5" width="695.4" height="24.65" shape-rendering="crispEdges"/><rect fill="#12100d" x="1415.2" y="367.5" width="24.4" height="24.65" shape-rendering="crispEdges"/><rect fill="#0c0a08" x="0" y="391.9" width="561.2" height="24.65" shape-rendering="crispEdges"/><rect fill="#0c0a08" x="561.2" y="391.9" width="12.2" height="24.65" shape-rendering="crispEdges"/><rect fill="#12100d" x="573.4" y="391.9" width="24.4" height="24.65" shape-rendering="crispEdges"/><rect fill="#12100d" x="597.8" y="391.9" width="817.4" height="24.65" shape-rendering="crispEdges"/><rect fill="#12100d" x="1415.2" y="391.9" width="24.4" height="24.65" shape-rendering="crispEdges"/><rect fill="#0c0a08" x="0" y="416.3" width="561.2" height="24.65" shape-rendering="crispEdges"/><rect fill="#0c0a08" x="561.2" y="416.3" width="12.2" height="24.65" shape-rendering="crispEdges"/><rect fill="#12100d" x="573.4" y="416.3" width="24.4" height="24.65" shape-rendering="crispEdges"/><rect fill="#12100d" x="597.8" y="416.3" width="817.4" height="24.65" shape-rendering="crispEdges"/><rect fill="#12100d" x="1415.2" y="416.3" width="24.4" height="24.65" shape-rendering="crispEdges"/><rect fill="#0c0a08" x="0" y="440.7" width="561.2" height="24.65" shape-rendering="crispEdges"/><rect fill="#0c0a08" x="561.2" y="440.7" width="12.2" height="24.65" shape-rendering="crispEdges"/><rect fill="#12100d" x="573.4" y="440.7" width="24.4" height="24.65" shape-rendering="crispEdges"/><rect fill="#12100d" x="597.8" y="440.7" width="817.4" height="24.65" shape-rendering="crispEdges"/><rect fill="#12100d" x="1415.2" y="440.7" width="24.4" height="24.65" shape-rendering="crispEdges"/><rect fill="#0c0a08" x="0" y="465.1" width="561.2" height="24.65" shape-rendering="crispEdges"/><rect fill="#0c0a08" x="561.2" y="465.1" width="12.2" height="24.65" shape-rendering="crispEdges"/><rect fill="#12100d" x="573.4" y="465.1" width="24.4" height="24.65" shape-rendering="crispEdges"/><rect fill="#12100d" x="597.8" y="465.1" width="817.4" height="24.65" shape-rendering="crispEdges"/><rect fill="#12100d" x="1415.2" y="465.1" width="24.4" height="24.65" shape-rendering="crispEdges"/><rect fill="#0c0a08" x="0" y="489.5" width="561.2" height="24.65" shape-rendering="crispEdges"/><rect fill="#0c0a08" x="561.2" y="489.5" width="12.2" height="24.65" shape-rendering="crispEdges"/><rect fill="#12100d" x="573.4" y="489.5" width="24.4" height="24.65" shape-rendering="crispEdges"/><rect fill="#12100d" x="597.8" y="489.5" width="817.4" height="24.65" shape-rendering="crispEdges"/><rect fill="#12100d" x="1415.2" y="489.5" width="24.4" height="24.65" shape-rendering="crispEdges"/><rect fill="#0c0a08" x="0" y="513.9" width="561.2" height="24.65" shape-rendering="crispEdges"/><rect fill="#0c0a08" x="561.2" y="513.9" width="12.2" height="24.65" shape-rendering="crispEdges"/><rect fill="#12100d" x="573.4" y="513.9" width="24.4" height="24.65" shape-rendering="crispEdges"/><rect fill="#12100d" x="597.8" y="513.9" width="817.4" height="24.65" shape-rendering="crispEdges"/><rect fill="#12100d" x="1415.2" y="513.9" width="24.4" height="24.65" shape-rendering="crispEdges"/><rect fill="#0c0a08" x="0" y="538.3" width="561.2" height="24.65" shape-rendering="crispEdges"/><rect fill="#0c0a08" x="561.2" y="538.3" width="12.2" height="24.65" shape-rendering="crispEdges"/><rect fill="#12100d" x="573.4" y="538.3" width="24.4" height="24.65" shape-rendering="crispEdges"/><rect fill="#12100d" x="597.8" y="538.3" width="817.4" height="24.65" shape-rendering="crispEdges"/><rect fill="#12100d" x="1415.2" y="538.3" width="24.4" height="24.65" shape-rendering="crispEdges"/><rect fill="#0c0a08" x="0" y="562.7" width="561.2" height="24.65" shape-rendering="crispEdges"/><rect fill="#0c0a08" x="561.2" y="562.7" width="12.2" height="24.65" shape-rendering="crispEdges"/><rect fill="#12100d" x="573.4" y="562.7" width="24.4" height="24.65" shape-rendering="crispEdges"/><rect fill="#12100d" x="597.8" y="562.7" width="817.4" height="24.65" shape-rendering="crispEdges"/><rect fill="#12100d" x="1415.2" y="562.7" width="24.4" height="24.65" shape-rendering="crispEdges"/><rect fill="#0c0a08" x="0" y="587.1" width="561.2" height="24.65" shape-rendering="crispEdges"/><rect fill="#0c0a08" x="561.2" y="587.1" width="12.2" height="24.65" shape-rendering="crispEdges"/><rect fill="#12100d" x="573.4" y="587.1" width="24.4" height="24.65" shape-rendering="crispEdges"/><rect fill="#12100d" x="597.8" y="587.1" width="817.4" height="24.65" shape-rendering="crispEdges"/><rect fill="#12100d" x="1415.2" y="587.1" width="24.4" height="24.65" shape-rendering="crispEdges"/><rect fill="#0c0a08" x="0" y="611.5" width="561.2" height="24.65" shape-rendering="crispEdges"/><rect fill="#0c0a08" x="561.2" y="611.5" width="12.2" height="24.65" shape-rendering="crispEdges"/><rect fill="#12100d" x="573.4" y="611.5" width="24.4" height="24.65" shape-rendering="crispEdges"/><rect fill="#12100d" x="597.8" y="611.5" width="817.4" height="24.65" shape-rendering="crispEdges"/><rect fill="#12100d" x="1415.2" y="611.5" width="24.4" height="24.65" shape-rendering="crispEdges"/><rect fill="#0c0a08" x="0" y="635.9" width="561.2" height="24.65" shape-rendering="crispEdges"/><rect fill="#0c0a08" x="561.2" y="635.9" width="12.2" height="24.65" shape-rendering="crispEdges"/><rect fill="#12100d" x="573.4" y="635.9" width="24.4" height="24.65" shape-rendering="crispEdges"/><rect fill="#12100d" x="597.8" y="635.9" width="817.4" height="24.65" shape-rendering="crispEdges"/><rect fill="#12100d" x="1415.2" y="635.9" width="24.4" height="24.65" shape-rendering="crispEdges"/><rect fill="#0c0a08" x="0" y="660.3" width="561.2" height="24.65" shape-rendering="crispEdges"/><rect fill="#0c0a08" x="561.2" y="660.3" width="12.2" height="24.65" shape-rendering="crispEdges"/><rect fill="#12100d" x="573.4" y="660.3" width="24.4" height="24.65" shape-rendering="crispEdges"/><rect fill="#12100d" x="597.8" y="660.3" width="817.4" height="24.65" shape-rendering="crispEdges"/><rect fill="#12100d" x="1415.2" y="660.3" width="24.4" height="24.65" shape-rendering="crispEdges"/><rect fill="#0c0a08" x="0" y="684.7" width="561.2" height="24.65" shape-rendering="crispEdges"/><rect fill="#0c0a08" x="561.2" y="684.7" width="12.2" height="24.65" shape-rendering="crispEdges"/><rect fill="#12100d" x="573.4" y="684.7" width="866.2" height="24.65" shape-rendering="crispEdges"/><rect fill="#12100d" x="0" y="709.1" width="36.6" height="24.65" shape-rendering="crispEdges"/><rect fill="#12100d" x="36.6" y="709.1" width="36.6" height="24.65" shape-rendering="crispEdges"/><rect fill="#12100d" x="73.2" y="709.1" width="36.6" height="24.65" shape-rendering="crispEdges"/><rect fill="#12100d" x="109.8" y="709.1" width="61" height="24.65" shape-rendering="crispEdges"/><rect fill="#12100d" x="170.8" y="709.1" width="36.6" height="24.65" shape-rendering="crispEdges"/><rect fill="#12100d" x="207.4" y="709.1" width="85.4" height="24.65" shape-rendering="crispEdges"/><rect fill="#12100d" x="292.8" y="709.1" width="36.6" height="24.65" shape-rendering="crispEdges"/><rect fill="#12100d" x="329.4" y="709.1" width="61" height="24.65" shape-rendering="crispEdges"/><rect fill="#12100d" x="390.4" y="709.1" width="36.6" height="24.65" shape-rendering="crispEdges"/><rect fill="#12100d" x="427" y="709.1" width="61" height="24.65" shape-rendering="crispEdges"/><rect fill="#12100d" x="488" y="709.1" width="805.2" height="24.65" shape-rendering="crispEdges"/><rect fill="#12100d" x="1293.2" y="709.1" width="12.2" height="24.65" shape-rendering="crispEdges"/><rect fill="#12100d" x="1305.4" y="709.1" width="24.4" height="24.65" shape-rendering="crispEdges"/><rect fill="#12100d" x="1329.8" y="709.1" width="97.6" height="24.65" shape-rendering="crispEdges"/><rect fill="#12100d" x="1427.4" y="709.1" width="12.2" height="24.65" shape-rendering="crispEdges"/>
    <g class="terminal-3405405702-matrix">
    <text class="terminal-3405405702-r1" x="1439.6" y="20" textLength="12.2" clip-path="url(#terminal-3405405702-line-0)">
</text><text class="terminal-3405405702-r1" x="1439.6" y="44.4" textLength="12.2" clip-path="url(#terminal-3405405702-line-1)">
</text><text class="terminal-3405405702-r2" x="0" y="68.8" textLength="1439.6" clip-path="url(#terminal-3405405702-line-2)">──────────────────────────────────────────────────────────────────────────────────────────────────────────────────────</text><text class="terminal-3405405702-r1" x="1439.6" y="68.8" textLength="12.2" clip-path="url(#terminal-3405405702-line-2)">
</text><text class="terminal-3405405702-r3" x="12.2" y="93.2" textLength="256.2" clip-path="url(#terminal-3405405702-line-3)">SIGNAL&#160;LANES&#160;·&#160;ROSTER</text><text class="terminal-3405405702-r3" x="585.6" y="93.2" textLength="183" clip-path="url(#terminal-3405405702-line-3)">DETAIL&#160;BAY&#160;·&#160;02</text><text class="terminal-3405405702-r1" x="1439.6" y="93.2" textLength="12.2" clip-path="url(#terminal-3405405702-line-3)">
</text><text class="terminal-3405405702-r4" x="0" y="117.6" textLength="12.2" clip-path="url(#terminal-3405405702-line-4)">│</text><text class="terminal-3405405702-r5" x="24.4" y="117.6" textLength="12.2" clip-path="url(#terminal-3405405702-line-4)">▮</text><text class="terminal-3405405702-r7" x="61" y="117.6" textLength="109.8" clip-path="url(#terminal-3405405702-line-4)">‹skill›&#160;&#160;</text><text class="terminal-3405405702-r6" x="183" y="117.6" textLength="317.2" clip-path="url(#terminal-3405405702-line-4)">STUCK-DETECTION&#160;&#160;&#160;&#160;&#160;&#160;&#160;&#160;&#160;&#160;&#160;</text><text class="terminal-3405405702-r8" x="512.4" y="117.6" textLength="24.4" clip-path="url(#terminal-3405405702-line-4)">fu</text><text class="terminal-3405405702-r2" x="561.2" y="117.6" textLength="12.2" clip-path="url(#terminal-3405405702-line-4)">│</text><text class="terminal-3405405702-r1" x="1439.6" y="117.6" textLength="12.2" clip-path="url(#terminal-3405405702-line-4)">
</text><text class="terminal-3405405702-r4" x="0" y="142" textLength="12.2" clip-path="url(#terminal-3405405702-line-5)">│</text><text class="terminal-3405405702-r8" x="24.4" y="142" textLength="12.2" clip-path="url(#terminal-3405405702-line-5)">●</text><text class="terminal-3405405702-r7" x="61" y="142" textLength="109.8" clip-path="url(#terminal-3405405702-line-5)">‹cli›&#160;&#160;&#160;&#160;</text><text class="terminal-3405405702-r6" x="183" y="142" textLength="317.2" clip-path="url(#terminal-3405405702-line-5)">BIN/HARNESS&#160;&#160;&#160;&#160;&#160;&#160;&#160;&#160;&#160;&#160;&#160;&#160;&#160;&#160;&#160;</text><text class="terminal-3405405702-r8" x="512.4" y="142" textLength="24.4" clip-path="url(#terminal-3405405702-line-5)">fu</text><text class="terminal-3405405702-r2" x="561.2" y="142" textLength="12.2" clip-path="url(#terminal-3405405702-line-5)">│</text><text class="terminal-3405405702-r9" x="597.8" y="142" textLength="244" clip-path="url(#terminal-3405405702-line-5)">GUARD_TRUNK_LEASE.PY</text><text class="terminal-3405405702-r7" x="866.2" y="142" textLength="73.2" clip-path="url(#terminal-3405405702-line-5)">‹hook›</text><text class="terminal-3405405702-r1" x="1439.6" y="142" textLength="12.2" clip-path="url(#terminal-3405405702-line-5)">
</text><text class="terminal-3405405702-r8" x="0" y="166.4" textLength="12.2" clip-path="url(#terminal-3405405702-line-6)">│</text><text class="terminal-3405405702-r8" x="24.4" y="166.4" textLength="12.2" clip-path="url(#terminal-3405405702-line-6)">●</text><text class="terminal-3405405702-r7" x="61" y="166.4" textLength="109.8" clip-path="url(#terminal-3405405702-line-6)">‹hook›&#160;&#160;&#160;</text><text class="terminal-3405405702-r6" x="183" y="166.4" textLength="317.2" clip-path="url(#terminal-3405405702-line-6)">GUARD_TRUNK_LEASE.PY&#160;&#160;&#160;&#160;&#160;&#160;</text><text class="terminal-3405405702-r8" x="512.4" y="166.4" textLength="24.4" clip-path="url(#terminal-3405405702-line-6)">fu</text><text class="terminal-3405405702-r2" x="561.2" y="166.4" textLength="12.2" clip-path="url(#terminal-3405405702-line-6)">│</text><text class="terminal-3405405702-r7" x="597.8" y="166.4" textLength="317.2" clip-path="url(#terminal-3405405702-line-6)">hooks/guard_trunk_lease.py</text><text class="terminal-3405405702-r1" x="1439.6" y="166.4" textLength="12.2" clip-path="url(#terminal-3405405702-line-6)">
</text><text class="terminal-3405405702-r4" x="0" y="190.8" textLength="12.2" clip-path="url(#terminal-3405405702-line-7)">│</text><text class="terminal-3405405702-r10" x="24.4" y="190.8" textLength="12.2" clip-path="url(#terminal-3405405702-line-7)">◦</text><text class="terminal-3405405702-r7" x="61" y="190.8" textLength="109.8" clip-path="url(#terminal-3405405702-line-7)">‹skill›&#160;&#160;</text><text class="terminal-3405405702-r6" x="183" y="190.8" textLength="317.2" clip-path="url(#terminal-3405405702-line-7)">BUILD-LOOP&#160;&#160;&#160;&#160;&#160;&#160;&#160;&#160;&#160;&#160;&#160;&#160;&#160;&#160;&#160;&#160;</text><text class="terminal-3405405702-r11" x="512.4" y="190.8" textLength="24.4" clip-path="url(#terminal-3405405702-line-7)">fu</text><text class="terminal-3405405702-r2" x="561.2" y="190.8" textLength="12.2" clip-path="url(#terminal-3405405702-line-7)">│</text><text class="terminal-3405405702-r1" x="1439.6" y="190.8" textLength="12.2" clip-path="url(#terminal-3405405702-line-7)">
</text><text class="terminal-3405405702-r4" x="0" y="215.2" textLength="12.2" clip-path="url(#terminal-3405405702-line-8)">│</text><text class="terminal-3405405702-r10" x="24.4" y="215.2" textLength="12.2" clip-path="url(#terminal-3405405702-line-8)">◦</text><text class="terminal-3405405702-r7" x="61" y="215.2" textLength="109.8" clip-path="url(#terminal-3405405702-line-8)">‹agent›&#160;&#160;</text><text class="terminal-3405405702-r6" x="183" y="215.2" textLength="317.2" clip-path="url(#terminal-3405405702-line-8)">CRITIC&#160;&#160;&#160;&#160;&#160;&#160;&#160;&#160;&#160;&#160;&#160;&#160;&#160;&#160;&#160;&#160;&#160;&#160;&#160;&#160;</text><text class="terminal-3405405702-r11" x="512.4" y="215.2" textLength="24.4" clip-path="url(#terminal-3405405702-line-8)">fu</text><text class="terminal-3405405702-r2" x="561.2" y="215.2" textLength="12.2" clip-path="url(#terminal-3405405702-line-8)">│</text><text class="terminal-3405405702-r7" x="597.8" y="215.2" textLength="170.8" clip-path="url(#terminal-3405405702-line-8)">FOLLOWUPS&#160;·&#160;02</text><text class="terminal-3405405702-r1" x="1439.6" y="215.2" textLength="12.2" clip-path="url(#terminal-3405405702-line-8)">
</text><text class="terminal-3405405702-r2" x="561.2" y="239.6" textLength="12.2" clip-path="url(#terminal-3405405702-line-9)">│</text><text class="terminal-3405405702-r10" x="622.2" y="239.6" textLength="73.2" clip-path="url(#terminal-3405405702-line-9)">512398</text><text class="terminal-3405405702-r6" x="707.6" y="239.6" textLength="646.6" clip-path="url(#terminal-3405405702-line-9)">_MUTATING_CMD:&#160;2&#160;pre-existing&#160;classifier&#160;nits&#160;(out&#160;of</text><text class="terminal-3405405702-r1" x="1439.6" y="239.6" textLength="12.2" clip-path="url(#terminal-3405405702-line-9)">
</text><text class="terminal-3405405702-r2" x="561.2" y="264" textLength="12.2" clip-path="url(#terminal-3405405702-line-10)">│</text><text class="terminal-3405405702-r6" x="597.8" y="264" textLength="170.8" clip-path="url(#terminal-3405405702-line-10)">scope,&#160;PR&#160;#95)</text><text class="terminal-3405405702-r1" x="1439.6" y="264" textLength="12.2" clip-path="url(#terminal-3405405702-line-10)">
</text><text class="terminal-3405405702-r2" x="561.2" y="288.4" textLength="12.2" clip-path="url(#terminal-3405405702-line-11)">│</text><text class="terminal-3405405702-r10" x="622.2" y="288.4" textLength="73.2" clip-path="url(#terminal-3405405702-line-11)">f963e5</text><text class="terminal-3405405702-r6" x="707.6" y="288.4" textLength="585.6" clip-path="url(#terminal-3405405702-line-11)">hint&#160;names&#160;only&#160;EnterWorktree&#160;as&#160;the&#160;escape;&#160;add</text><text class="terminal-3405405702-r1" x="1439.6" y="288.4" textLength="12.2" clip-path="url(#terminal-3405405702-line-11)">
</text><text class="terminal-3405405702-r2" x="561.2" y="312.8" textLength="12.2" clip-path="url(#terminal-3405405702-line-12)">│</text><text class="terminal-3405405702-r6" x="597.8" y="312.8" textLength="317.2" clip-path="url(#terminal-3405405702-line-12)">subagent/pinned-cwd&#160;caveat</text><text class="terminal-3405405702-r1" x="1439.6" y="312.8" textLength="12.2" clip-path="url(#terminal-3405405702-line-12)">
</text><text class="terminal-3405405702-r2" x="561.2" y="337.2" textLength="12.2" clip-path="url(#terminal-3405405702-line-13)">│</text><text class="terminal-3405405702-r1" x="1439.6" y="337.2" textLength="12.2" clip-path="url(#terminal-3405405702-line-13)">
</text><text class="terminal-3405405702-r2" x="561.2" y="361.6" textLength="12.2" clip-path="url(#terminal-3405405702-line-14)">│</text><text class="terminal-3405405702-r7" x="597.8" y="361.6" textLength="170.8" clip-path="url(#terminal-3405405702-line-14)">PROPOSALS&#160;·&#160;00</text><text class="terminal-3405405702-r1" x="1439.6" y="361.6" textLength="12.2" clip-path="url(#terminal-3405405702-line-14)">
</text><text class="terminal-3405405702-r2" x="561.2" y="386" textLength="12.2" clip-path="url(#terminal-3405405702-line-15)">│</text><text class="terminal-3405405702-r11" x="622.2" y="386" textLength="97.6" clip-path="url(#terminal-3405405702-line-15)">—&#160;none&#160;—</text><text class="terminal-3405405702-r1" x="1439.6" y="386" textLength="12.2" clip-path="url(#terminal-3405405702-line-15)">
</text><text class="terminal-3405405702-r2" x="561.2" y="410.4" textLength="12.2" clip-path="url(#terminal-3405405702-line-16)">│</text><text class="terminal-3405405702-r1" x="1439.6" y="410.4" textLength="12.2" clip-path="url(#terminal-3405405702-line-16)">
</text><text class="terminal-3405405702-r2" x="561.2" y="434.8" textLength="12.2" clip-path="url(#terminal-3405405702-line-17)">│</text><text class="terminal-3405405702-r1" x="1439.6" y="434.8" textLength="12.2" clip-path="url(#terminal-3405405702-line-17)">
</text><text class="terminal-3405405702-r2" x="561.2" y="459.2" textLength="12.2" clip-path="url(#terminal-3405405702-line-18)">│</text><text class="terminal-3405405702-r1" x="1439.6" y="459.2" textLength="12.2" clip-path="url(#terminal-3405405702-line-18)">
</text><text class="terminal-3405405702-r2" x="561.2" y="483.6" textLength="12.2" clip-path="url(#terminal-3405405702-line-19)">│</text><text class="terminal-3405405702-r1" x="1439.6" y="483.6" textLength="12.2" clip-path="url(#terminal-3405405702-line-19)">
</text><text class="terminal-3405405702-r2" x="561.2" y="508" textLength="12.2" clip-path="url(#terminal-3405405702-line-20)">│</text><text class="terminal-3405405702-r1" x="1439.6" y="508" textLength="12.2" clip-path="url(#terminal-3405405702-line-20)">
</text><text class="terminal-3405405702-r2" x="561.2" y="532.4" textLength="12.2" clip-path="url(#terminal-3405405702-line-21)">│</text><text class="terminal-3405405702-r1" x="1439.6" y="532.4" textLength="12.2" clip-path="url(#terminal-3405405702-line-21)">
</text><text class="terminal-3405405702-r2" x="561.2" y="556.8" textLength="12.2" clip-path="url(#terminal-3405405702-line-22)">│</text><text class="terminal-3405405702-r1" x="1439.6" y="556.8" textLength="12.2" clip-path="url(#terminal-3405405702-line-22)">
</text><text class="terminal-3405405702-r2" x="561.2" y="581.2" textLength="12.2" clip-path="url(#terminal-3405405702-line-23)">│</text><text class="terminal-3405405702-r1" x="1439.6" y="581.2" textLength="12.2" clip-path="url(#terminal-3405405702-line-23)">
</text><text class="terminal-3405405702-r2" x="561.2" y="605.6" textLength="12.2" clip-path="url(#terminal-3405405702-line-24)">│</text><text class="terminal-3405405702-r1" x="1439.6" y="605.6" textLength="12.2" clip-path="url(#terminal-3405405702-line-24)">
</text><text class="terminal-3405405702-r2" x="561.2" y="630" textLength="12.2" clip-path="url(#terminal-3405405702-line-25)">│</text><text class="terminal-3405405702-r1" x="1439.6" y="630" textLength="12.2" clip-path="url(#terminal-3405405702-line-25)">
</text><text class="terminal-3405405702-r2" x="561.2" y="654.4" textLength="12.2" clip-path="url(#terminal-3405405702-line-26)">│</text><text class="terminal-3405405702-r1" x="1439.6" y="654.4" textLength="12.2" clip-path="url(#terminal-3405405702-line-26)">
</text><text class="terminal-3405405702-r2" x="561.2" y="678.8" textLength="12.2" clip-path="url(#terminal-3405405702-line-27)">│</text><text class="terminal-3405405702-r1" x="1439.6" y="678.8" textLength="12.2" clip-path="url(#terminal-3405405702-line-27)">
</text><text class="terminal-3405405702-r2" x="561.2" y="703.2" textLength="12.2" clip-path="url(#terminal-3405405702-line-28)">│</text><text class="terminal-3405405702-r1" x="1439.6" y="703.2" textLength="12.2" clip-path="url(#terminal-3405405702-line-28)">
</text><text class="terminal-3405405702-r12" x="0" y="727.6" textLength="36.6" clip-path="url(#terminal-3405405702-line-29)">&#160;↑&#160;</text><text class="terminal-3405405702-r13" x="36.6" y="727.6" textLength="36.6" clip-path="url(#terminal-3405405702-line-29)">Up&#160;</text><text class="terminal-3405405702-r12" x="73.2" y="727.6" textLength="36.6" clip-path="url(#terminal-3405405702-line-29)">&#160;↓&#160;</text><text class="terminal-3405405702-r13" x="109.8" y="727.6" textLength="61" clip-path="url(#terminal-3405405702-line-29)">Down&#160;</text><text class="terminal-3405405702-r12" x="170.8" y="727.6" textLength="36.6" clip-path="url(#terminal-3405405702-line-29)">&#160;r&#160;</text><text class="terminal-3405405702-r13" x="207.4" y="727.6" textLength="85.4" clip-path="url(#terminal-3405405702-line-29)">Reload&#160;</text><text class="terminal-3405405702-r12" x="292.8" y="727.6" textLength="36.6" clip-path="url(#terminal-3405405702-line-29)">&#160;s&#160;</text><text class="terminal-3405405702-r13" x="329.4" y="727.6" textLength="61" clip-path="url(#terminal-3405405702-line-29)">Sort&#160;</text><text class="terminal-3405405702-r12" x="390.4" y="727.6" textLength="36.6" clip-path="url(#terminal-3405405702-line-29)">&#160;q&#160;</text><text class="terminal-3405405702-r13" x="427" y="727.6" textLength="61" clip-path="url(#terminal-3405405702-line-29)">Quit&#160;</text><text class="terminal-3405405702-r14" x="1293.2" y="727.6" textLength="12.2" clip-path="url(#terminal-3405405702-line-29)">▏</text><text class="terminal-3405405702-r12" x="1305.4" y="727.6" textLength="24.4" clip-path="url(#terminal-3405405702-line-29)">^p</text><text class="terminal-3405405702-r13" x="1329.8" y="727.6" textLength="97.6" clip-path="url(#terminal-3405405702-line-29)">&#160;palette</text>
    </g>
    </g>
</svg>
